<?xml version="1.0" standalone="no"?>
<!DOCTYPE svg PUBLIC "-//W3C//DTD SVG 1.1//EN" "http://www.w3.org/Graphics/SVG/1.1/DTD/svg11.dtd" >
<!--
2013-9-30: Created.
-->
<svg>
<metadata>
Created by iconfont
</metadata>
<defs>

<font id="iconfont" horiz-adv-x="1024" >
  <font-face
    font-family="iconfont"
    font-weight="500"
    font-stretch="normal"
    units-per-em="1024"
    ascent="896"
    descent="-128"
  />
    <missing-glyph />
    
    <glyph glyph-name="zhanghao" unicode="&#58885;" d="M921.6 691.2L102.4 691.2c-56.558933 0-102.4-45.841067-102.4-102.4l0-409.6c0-56.558933 45.841067-102.4 102.4-102.4l819.2 0c56.558933 0 102.4 45.841067 102.4 102.4L1024 588.8C1024 645.358933 978.158933 691.2 921.6 691.2zM512 198.99733300000003c0-10.939733-8.6016-19.797333-19.2-19.797333L121.6 179.20000000000005C111.0016 179.20000000000005 102.4 188.05759999999998 102.4 198.99733300000003l0 0.068267c0 0 0 72.226133 51.0976 98.491733 32.375467 16.605867 19.899733 3.089067 59.630933 20.138667 39.697067 16.964267 49.1008 22.903467 49.1008 22.903467l0.3584 39.133867c0 0-14.865067 11.741867-19.473067 48.571733-9.335467-2.798933-12.407467 11.264-12.936533 20.241067-0.494933 8.635733-5.393067 35.6352 5.973333 33.194667-2.338133 18.0224-3.9936 34.286933-3.157333 42.9056 2.833067 30.242133 31.0272 61.815467 74.496 64.136533 51.0976-2.304 71.3728-33.8944 74.205867-64.136533 0.836267-8.618667-1.006933-24.8832-3.328-42.888533 11.3664 2.423467 6.434133-24.541867 5.905067-33.194667-0.529067-8.925867-3.669333-22.971733-12.936533-20.1728-4.676267-36.846933-19.541333-48.503467-19.541333-48.503467l0.3584-38.946133c0 0 9.403733-5.5296 49.1008-22.493867 39.7312-16.9984 27.272533-4.3008 59.630933-20.906667C512 271.291733 512 199.06560000000002 512 199.06560000000002L512 198.99733300000003zM819.2 179.20000000000005L614.4 179.20000000000005l0 51.2 204.8 0L819.2 179.20000000000005zM921.6 332.79999999999995L614.4 332.79999999999995l0 51.2 307.2 0L921.6 332.79999999999995zM921.6 486.4L614.4 486.4l0 51.2 307.2 0L921.6 486.4z"  horiz-adv-x="1024" />

    
    <glyph glyph-name="gantan" unicode="&#58975;" d="M512-124.68827052999995c-280.93104613 0-508.68827053 227.75722439-508.68827053 508.68827053s227.75722439 508.68827053 508.68827053 508.68827053 508.68827053-227.75722439 508.68827053-508.68827053S792.93104613-124.68827052999995 512-124.68827052999995L512-124.68827052999995zM512 824.86358107c-243.49228449 0-440.86358107-197.37129779-440.86358107-440.86358107s197.37129779-440.86358107 440.86358107-440.86358107 440.86358107 197.37129779 440.86358107 440.86358107S755.49228449 824.86358107 512 824.86358107L512 824.86358107zM512 78.78703817999997c-37.47353456 0-67.82468825 30.35115369-67.82468825 67.82468823s30.35115369 67.825931 67.82468825 67.825931 67.82468825-30.35239523 67.82468825-67.825931S549.47353456 78.78703817999997 512 78.78703817999997L512 78.78703817999997zM512 282.26234565000004c-18.71938021 0-33.9129649 30.35115369-33.9129649 67.82468824l-33.91172335 305.21296183c0 37.47353456 30.35115369 67.825931 67.82468825 67.825931s67.82468825-30.35239523 67.82468825-67.825931l-33.91172335-305.21296183C545.9129649 312.61349934 530.71938021 282.26234565000004 512 282.26234565000004L512 282.26234565000004z"  horiz-adv-x="1024" />

    
    <glyph glyph-name="cunchu" unicode="&#58887;" d="M356.568487 190.639131 452.573027 190.639131 452.573027 34.861228 356.568487 34.861228 356.568487 190.639131ZM886.465089 827.811991 131.097292 827.811991c-9.996678 0-18.10024-8.104585-18.10024-18.101263l0-653.999085 121.04382-119.468952 55.277978 0 0 0.103354 0 26.89658L289.31885 267.038148l364.085182 0 0-230.693126-0.567935 0 0-0.103354 233.630015 0c9.996678 0 18.10024 8.103562 18.10024 18.101263L904.566352 809.710728C904.567375 819.707406 896.46279 827.811991 886.465089 827.811991L886.465089 827.811991zM778.223852 429.455261l-538.883277 0L239.340575 784.484184l538.883277 0L778.223852 429.455261 778.223852 429.455261zM356.568487 36.345022 452.573027 36.345022 452.573027 36.241668 356.568487 36.241668 356.568487 36.345022Z"  horiz-adv-x="1024" />

    
    <glyph glyph-name="wodetouzi" unicode="&#58884;" d="M1003.44718222 140.35171555c-23.30168889-27.30666667-52.4288-52.72007111-87.23569777-75.43921777l-0.94663112-0.65536-0.07281778-0.07281778c-104.20224-67.57489778-246.19690667-104.78478222-399.98805333-104.78478222-131.43608889 0-258.8672 28.47175111-358.84600889 80.09955555-56.50659555 29.19992889-102.38179555 65.09909333-136.02360888 105.44014222 7.42741333-73.32750222 63.20583111-145.12583111 165.4419911-197.99153777 94.59029333-48.93354667 212.40945778-72.96341333 329.42762667-72.96341333 135.07697778 0 269.20732445 31.96700445 365.76369778 95.10001777h0.21845333c75.65767111 49.37045333 115.78026667 109.95484445 122.26104889 171.26741333z m-87.23569777 74.05568l-0.94663112-0.58254222-0.07281778-0.07281778c-104.20224-67.72053333-246.19690667-104.8576-399.98805333-104.8576-131.43608889 0-258.8672 28.47175111-358.84600889 80.09955556-56.50659555 29.12711111-102.38179555 65.24472889-136.09642666 105.51296 7.42741333-73.40032 63.20583111-145.19864889 165.44199111-198.13717333 94.59029333-48.86072889 212.40945778-72.89059555 329.42762667-72.89059556 135.07697778 0 269.20732445 31.96700445 365.76369777 95.0272l0.21845333 0.07281778c75.73048889 49.51608889 115.78026667 109.95484445 122.2610489 171.26741333a400.49777778 400.49777778 0 0 0-87.16288-75.43921778z m0 149.49489778l-0.94663112-0.65536h-0.07281778c-104.20224-67.72053333-246.19690667-104.93041778-399.98805333-104.93041778-131.43608889 0-258.8672 28.54456889-358.84600889 80.09955556-56.50659555 29.12711111-102.38179555 65.17191111-136.02360888 105.36732444 7.42741333-73.32750222 63.20583111-145.05301333 165.4419911-197.84590222 94.59029333-48.86072889 212.40945778-72.96341333 329.42762667-72.96341333 135.07697778 0 269.20732445 32.03982222 365.76369778 94.95438222l0.21845333 0.21845333c75.73048889 49.37045333 115.78026667 109.88202667 122.26104889 171.26741334-23.30168889-27.37948445-52.4288-52.86570667-87.23569777-75.51203556zM19.75182222 619.56551111c-4.87879111-82.28408889 51.33653333-165.36917333 166.02453333-224.64284444 203.81696-105.29450667 515.04014222-95.46410667 695.19132445 22.06378666l0.21845333 0.14563556c79.00728889 51.62780445 119.63960889 115.19772445 123.20768 179.35018666 0.29127111 4.00497778-0.14563555 7.93713778-0.21845333 11.94211556-0.07281778 5.02442667 0.14563555 10.19448889-0.36408889 15.14609778-7.57304889 73.18186667-63.35146667 144.68892445-165.44199111 197.40899556C743.85180445 869.91303111 626.10545778 894.01571555 509.08728889 894.01571555c-8.81095111 0-17.54908445-0.58254222-26.36003556-0.87381333h-1.52917333c-15.21891555-0.50972445-30.29219555-1.45635555-45.36547555-2.69425777l-1.89326223-0.14563556a811.91822222 811.91822222 0 0 1-44.63729777-5.24288l-1.82044445-0.29127111c-14.85482667-2.18453333-29.4912-4.66033778-43.90912-7.64586667l-1.09226667-0.29127111c-74.34695111-15.51018667-143.23256889-41.36049778-199.44789333-77.98784l-0.14563555-0.14563555c-78.86165333-51.40935111-119.56679111-115.05208889-123.13486223-179.13173334z m808.64142223-174.76266666c-154.44650667-100.85262222-421.39648-109.37230222-595.94069334-19.07825778-174.76266667 90.22122667-191.00103111 245.03182222-36.55452444 345.73880888 154.51932445 100.85262222 421.17802667 109.37230222 595.94069333 19.07825778 174.47139555-90.22122667 191.07384889-245.03182222 36.55452445-345.73880888zM216.28700445 760.90481778c-144.1792-94.37184-128.81464889-238.76949333 34.22435555-323.38375111 163.76718222-84.10453333 412.65834667-76.31303111 557.34727111 17.76753778 144.25201778 94.44465778 128.96028445 238.91512889-34.22435556 323.45656888-163.54872889 84.25016889-412.51271111 76.24021333-557.3472711-17.84035555z m143.08693333-274.66865778l-22.50069333-14.63637333c-8.51968-5.60696889-11.65084445-5.60696889-21.77251556-0.36408889l-11.35957334 5.82542222c-10.19448889 5.31569778-10.55857778 7.13614222-1.96608 12.67029333l22.50069334 14.70919112c-19.15107555 9.90321778-86.87160889 58.47267555-71.87114667 68.23025777 1.52917333 1.01944889 1.52917333 1.01944889 5.60696889 2.33016889l58.54549334 19.00544c1.45635555 0.43690667 6.77205333 1.16508445 9.10222222 0.07281778 3.42243555-1.89326222 21.69969778-34.15153778 52.86570666-54.24924444l98.15836445 64.00682666c-21.11715555 26.72412445-68.59434667 71.72551111-2.54862223 114.90645334 73.69159111 48.05973333 168.28188445 23.66577778 195.37009778 10.92266666l24.53959112 15.94709334c8.51968 5.60696889 11.72366222 5.67978667 21.9181511 0.43690666l11.5052089-5.89824c9.97603555-5.17006222 10.19448889-7.13614222 1.67480888-12.59747556l-24.53959111-16.0199111c15.51018667-9.24785778 76.96839111-53.81233778 59.85621333-65.02627556a20.46179555 20.46179555 0 0 0-7.35459555-2.69425778l-51.55498667-13.18001778c-3.56807111-1.16508445-6.77205333-1.16508445-9.10222222 0-3.42243555 1.82044445-19.95207111 33.86026667-44.49166222 46.53056l-92.62421334-60.43875555c20.82588445-29.4912 61.67665778-75.73048889-2.54862222-117.60071111-69.61379555-45.36547555-154.37368889-28.54456889-197.40899555-12.88874667z m129.32437333 44.56448c29.05429333 18.93262222 14.56355555 38.73905778 7.57304889 49.44327111l-86.58033778-56.57941333c20.38897778-5.89824 51.48216889-10.77703111 79.00728889 7.13614222z m50.53553778 109.15384889l81.70154666 53.30261333c-13.83537778 4.22343111-48.13255111 13.68974222-77.6237511-5.60696889-27.16103111-17.62190222-11.57802667-37.93806222-4.07779556-47.69564444z m0 0"  horiz-adv-x="1024" />

    
    <glyph glyph-name="empty-page-o" unicode="&#58880;" d="M1065.491086-108.08427900000004H589.17342c-59.747164 0-107.876823 48.12966-107.876824 107.876824V499.345219c0 49.789303 41.491086 91.280389 91.280389 91.280389h492.914101c49.789303 0 91.280389-41.491086 91.280389-91.280389v-516.149109c0-49.789303-41.491086-91.280389-91.280389-91.280389zM572.576985 540.836305c-23.235008 0-41.491086-18.256078-41.491085-41.491086v-499.552674c0-33.192869 24.894652-58.08752 58.08752-58.087521h476.317666c23.235008 0 41.491086 18.256078 41.491086 41.491086V499.345219c0 23.235008-18.256078 41.491086-41.491086 41.491086H572.576985zM1194.943274-36.719610999999986h-49.789303v49.789303h49.789303c28.213938 0 51.448947 23.235008 51.448946 51.448947V618.8395459999999c0 28.213938-23.235008 51.448947-51.448946 51.448947H799.948136c-28.213938 0-51.448947-23.235008-51.448946-51.448947v-33.192869h-49.789303v33.192869c0 54.768233 46.470016 101.23825 101.238249 101.23825H1194.943274c54.768233 0 101.23825-46.470016 101.23825-101.23825v-554.320907c0-54.768233-46.470016-101.23825-101.23825-101.23825zM530.720778 807.14269l29.989757-94.948201-47.465802-15.003176-29.989757 94.964797zM413.483566 716.459773l69.572252-71.231896-35.615948-34.786127-69.572252 71.231897zM277.22684 587.073971l116.141847-19.915721-8.414392-49.075657-116.141848 19.915721zM824.842788 280.272285c3.319287-6.638574 6.638574-16.596434 9.95786-28.213938h112.855754V187.33225300000004h-31.533225v36.512155H720.285251V187.33225300000004h-31.533225v64.726094h112.855754c-3.319287 9.957861-8.298217 16.596434-11.617504 23.235008l34.852512 4.97893z m-109.536467-151.027552h207.455429v-29.873582h-87.961102v-58.087521h112.855754v-29.873581H690.411669v29.873581h112.855754v58.087521h-87.961102v29.873582z m86.301459 56.427876c-23.235008-21.575365-53.10859-38.171799-86.301459-51.448946l-13.277148 28.213938c33.192869 11.617504 59.747164 26.554295 81.322529 46.470017l18.256078-23.235009z m48.129659 24.894652c31.533225-13.277147 59.747164-29.873582 84.641815-49.789303l-18.256077-26.554295c-26.554295 23.235008-54.768233 39.831442-82.982172 51.448946l16.596434 24.894652zM635.643436 482.748784H995.786062v-49.789303H635.643436zM635.643436 379.85089100000005h207.455429v-49.789303H635.643436z"  horiz-adv-x="1659" />

    
    <glyph glyph-name="caidan" unicode="&#58922;" d="M512 672c61.846 0 112 50.126 112 112S573.846 896 512 896 400 845.874 400 784s50.154-112 112-112z m0-192c-61.846 0-112-50.126-112-112 0-61.873 50.154-112 112-112s112 50.127 112 112c0 61.874-50.154 112-112 112z m0-384c-61.846 0-112-50.126-112-112 0-61.873 50.154-112 112-112s112 50.127 112 112c0 61.874-50.154 112-112 112z"  horiz-adv-x="1024" />

    
    <glyph glyph-name="weizhi" unicode="&#58906;" d="M840.008008 506.49049c0 179.891892-147.091091 325.957958-328.520521 325.957958-181.429429 0-328.520521-146.066066-328.52052-325.957958 0-59.451451 16.4004-114.802803 44.076076-162.978978h-0.512512l284.444444-407.447448 284.444444 407.447448h-0.512512c28.700701 48.176176 45.101101 103.527528 45.101101 162.978978M511.487487 309.173173c-110.19019 0-199.367367 88.664665-199.367367 197.317317 0 109.165165 89.177177 197.317317 199.367367 197.317318s199.367367-88.664665 199.367368-197.317318c0-109.165165-89.177177-197.317317-199.367368-197.317317"  horiz-adv-x="1025" />

    
    <glyph glyph-name="tongxunlu" unicode="&#59381;" d="M806.333217 850.810435H207.293217c-64.77913 0-117.292522-51.867826-117.292521-115.823305v-89.35513h119.763478v-93.851826h-119.763478v-120.987826h119.763478v-93.851826h-119.763478v-120.965565h119.763478v-93.851827h-119.763478v-89.377391c0-63.955478 52.513391-115.845565 117.314782-115.845565h599.017739c64.77913 0 117.292522 51.890087 117.292522 115.845565V734.98713c0 63.955478-52.535652 115.823304-117.314782 115.823305z m-35.84-708.563478a23.373913 23.373913 0 0 0-27.40313 18.476521c-17.830957 93.45113-100.774957 161.213217-197.231304 161.213218-96.100174 0-178.999652-67.450435-197.075479-160.545392a23.485217 23.485217 0 0 0-27.492174-18.387478 23.173565 23.173565 0 0 0-18.610087 27.158261c18.654609 95.899826 93.45113 169.182609 186.657392 190.886956-50.754783 21.704348-86.372174 71.568696-86.372174 129.558261 0 77.824 64.111304 141.156174 142.959304 141.156174 78.870261 0 142.959304-63.332174 142.959305-141.178435 0-57.967304-35.639652-107.831652-86.416696-129.55826 93.495652-21.74887 168.336696-95.321043 186.724174-191.688348a23.240348 23.240348 0 0 0-18.699131-27.113739zM642.003478 490.562783c0 52.268522-43.119304 94.809043-96.055652 94.809043-52.958609 0-96.055652-42.518261-96.055652-94.809043 0-52.268522 43.097043-94.809043 96.055652-94.809044 52.936348 0 96.055652 42.540522 96.055652 94.831304z"  horiz-adv-x="1024" />

    
    <glyph glyph-name="anzhuo" unicode="&#58886;" d="M839.562 551.28c-30.082 0-54.476-24.771-54.476-55.326v-216.209c0-30.558 24.393-55.328 54.476-55.328 30.087 0 54.476 24.771 54.476 55.328V495.954c0.001 30.555-24.387 55.326-54.476 55.326z m-657.08 0c-30.085 0-54.476-24.771-54.476-55.326v-216.209c0-30.558 24.391-55.328 54.476-55.328s54.476 24.771 54.476 55.328V495.954c0 30.555-24.391 55.326-54.476 55.326z m87.258-1.675v-395.014c0-23.462 19.02-42.481 42.483-42.481h48.533v-120.293c0-30.558 24.391-55.328 54.476-55.328 30.087 0 54.478 24.771 54.478 55.328V112.111h84.786v-120.293c0-30.558 24.393-55.328 54.476-55.328 30.087 0 54.481 24.771 54.481 55.328V112.111h48.528c23.467 0 42.485 19.018 42.485 42.481V549.605H269.741z m356.18 204.689l44.777 64.999c2.657 3.861 1.997 8.932-1.478 11.326-3.475 2.392-8.447 1.204-11.104-2.659l-46.512-67.518c-30.65 12.075-64.707 18.805-100.581 18.805-35.874 0-69.929-6.729-100.579-18.805L363.931 827.96c-2.659 3.863-7.631 5.05-11.106 2.659-3.475-2.395-4.134-7.466-1.476-11.326l44.777-64.999c-71.188-33.117-121.113-96.042-127.467-169.487h484.727c-6.355 73.445-56.28 136.37-127.466 169.487zM408.772 651.856c-14.811 0-26.819 12.005-26.819 26.819 0 14.811 12.007 26.819 26.819 26.819 14.813 0 26.819-12.007 26.819-26.819 0-14.813-12.005-26.819-26.819-26.819z m207.853 0c-14.811 0-26.816 12.005-26.816 26.819 0 14.811 12.004 26.819 26.816 26.819 14.816 0 26.821-12.007 26.821-26.819 0-14.813-12.004-26.819-26.821-26.819z"  horiz-adv-x="1024" />

    
    <glyph glyph-name="iOS" unicode="&#58968;" d="M776.59211 352.260488a233.3335 233.3335 0 0 0 104.580088 194.925486 222.304822 222.304822 0 0 1-177.164183 101.309956c-75.469505 8.335629-147.476518-46.807765-185.499812-46.807765s-97.270382 45.52536-159.851722 44.242956a236.09067 236.09067 0 0 1-200.375705-128.240451c-85.40814-156.45335-21.864997-388.568566 61.427176-515.526612 40.652223-62.196619 89.191234-132.087664 152.862618-129.522856 61.363056 2.564809 84.510457 41.678147 158.697558 41.678147s94.962054-41.678147 159.915842-40.395742c65.979712 1.282405 107.786099 63.479023 148.181841 125.675642a592.086162 592.086162 0 0 1 67.069756 145.552911 225.318472 225.318472 0 0 0-129.843457 207.108328z m-121.828428 380.232937A235.192987 235.192987 0 0 1 705.162179 896a211.596744 211.596744 0 0 1-142.667501-77.585473 222.112461 222.112461 0 0 1-51.296181-158.376957 177.035942 177.035942 0 0 1 143.436944 72.455855z"  horiz-adv-x="1024" />

    
    <glyph glyph-name="shouji" unicode="&#59153;" d="M728.502857-128H295.497143c-42.130286 0-76.068571 33.938286-76.068572 76.068571V819.931429c0 42.130286 33.938286 76.068571 76.068572 76.068571h433.005714c42.130286 0 76.068571-33.938286 76.068572-76.068571v-871.862858c0-42.130286-33.938286-76.068571-76.068572-76.068571zM570.514286 802.377143h-117.028572c-9.654857 0-17.554286 7.899429-17.554285 17.554286s7.899429 17.554286 17.554285 17.554285h117.028572c9.654857 0 17.554286-7.899429 17.554285-17.554285s-7.899429-17.554286-17.554285-17.554286zM272.091429 749.714286h479.817142v-696.32H272.091429zM283.794286 738.011429h456.411428v-672.914286H283.794286zM512-34.377143m-55.588571 0a55.588571 55.588571 0 1 1 111.177142 0 55.588571 55.588571 0 1 1-111.177142 0Z"  horiz-adv-x="1024" />

    
    <glyph glyph-name="OA" unicode="&#58888;" d="M165.730462 453.041231c-36.883692 0-66.796308-39.857231-66.796308-89.028923 0-49.191385 29.912615-89.048615 66.796308-89.048616s66.776615 39.857231 66.776615 89.048616c0 49.152-29.892923 89.028923-66.776615 89.028923z m195.387076-108.839385h69.277539l-34.638769 84.105846-34.63877-84.105846z m153.344 529.309539c-39.266462-9.511385-469.937231-89.028923-469.93723-89.028923S0 781.174154 0 715.204923v-667.825231s11.539692-47.812923 39.581538-54.409846 469.956923-98.934154 469.956924-98.934154 74.200615-11.539692 74.200615 34.63877V848.797538s-14.848 37.907692-69.277539 24.713847zM168.192 235.36246200000005c-60.100923 0-108.819692 57.6-108.819692 128.630153 0 71.010462 48.718769 128.610462 108.819692 128.610462s108.839385-57.6 108.839385-128.610462c0-71.030154-48.738462-128.630154-108.839385-128.630153z m306.688 4.962461l-29.656615 69.257846h-98.953847l-29.676307-69.257846h-39.561846l98.934153 247.355077h39.581539l98.914461-247.355077h-39.581538zM989.361231 784.4824619999999c-22.744615 0.984615-306.688 0-306.688 0s-39.581538-4.942769-39.581539-39.581539v-128.610461h252.297846s32 2.934154 29.676308-44.524308c-1.988923-40.585846-24.733538-49.486769-24.733538-49.486769H643.091692v-89.028923h247.355077s33.634462 2.953846 34.619077-54.429539c-0.984615-41.550769-29.676308-44.524308-29.676308-44.524308H643.091692v-69.257846H900.332308s24.733538-7.916308 24.733538-49.467077-24.733538-44.544-24.733538-44.544H643.091692v-148.40123s7.896615-19.790769 24.733539-19.79077h341.326769S1024 7.817846000000031 1024 22.646154000000024V749.843692s-11.874462 33.654154-34.638769 34.63877z"  horiz-adv-x="1024" />

    
    <glyph glyph-name="renshi" unicode="&#58889;" d="M517.480838 391.723886c120.773486 0 218.68739 112.893562 218.687391 252.138057S638.273829 896 517.480838 896 298.793448 783.106438 298.793448 643.861943s97.8944-252.138057 218.68739-252.138057z m321.633524-61.771581c48.313295 0 87.459352 48.391314 87.459352 108.075885 0 59.684571-39.165562 108.056381-87.459352 108.056381-48.3328 0-87.478857-48.37181-87.478857-108.056381-0.019505-59.684571 39.146057-108.075886 87.478857-108.075885z m-648.377295 0c48.313295 0 87.478857 48.391314 87.478857 108.075885 0 59.684571-39.165562 108.056381-87.478857 108.056381s-87.459352-48.37181-87.459353-108.056381c-0.019505-59.684571 39.146057-108.075886 87.459353-108.075885z m-51.453562-72.011581v36.00579C-13.809371 247.64220999999998 0.351086 124.138057 0.351086 124.138057s3.432838 0.429105 56.602819 0c20.577524 108.056381 82.3296 133.802667 82.3296 133.802667z m735.836647 36.00579v-41.155047s51.453562 2.574629 87.478858-133.783162h56.583314s14.160457 137.645105-144.062172 174.938209z m-200.704 36.005791c-65.184914-106.339962-128.633905-185.236724-128.633904-185.236724v72.031086s56.583314 70.763276-25.726781 92.628114c-41.174552-7.723886-73.337905-54.047695-25.726781-92.628114 1.287314-48.878933 0-66.901333 0-66.901334l-133.802667 195.535238S28.613486 273.34948599999996 36.337371-128.01950499999998c81.003276 0.390095 967.397181 0 967.397181 0s25.746286 355.08419-329.3184 457.97181z"  horiz-adv-x="1029" />

    
    <glyph glyph-name="canyin" unicode="&#58890;" d="M537.462154 567.433846c-109.666462 0-198.577231-88.910769-198.577231-198.577231s88.910769-198.557538 198.577231-198.557538c109.646769 0 198.557538 88.910769 198.557538 198.557538 0 109.666462-88.910769 198.577231-198.557538 198.577231zM148.263385 705.102769v-190.641231s-3.643077-10.909538-15.891693-10.594461c-12.248615 0.334769-15.891692 10.594462-15.891692 10.594461V705.102769H95.310769V493.292308s-4.312615-10.259692-10.594461-10.594462c-6.281846-0.334769-15.891692 5.986462-15.891693 10.594462V705.102769H47.655385v-190.641231s-3.643077-10.259692-10.594462-10.594461c-6.951385-0.334769-15.891692 5.297231-15.891692 5.297231v195.938461H0v-217.088s1.063385-30.72 58.249846-58.249846c-1.063385-24.359385 0-42.358154 0-42.358154h47.655385v42.358154s61.223385 22.508308 63.547077 68.844308c-0.334769 45.331692 0 206.513231 0 206.513231H148.263385zM84.716308 350.326154c-30.444308 0.433231-37.060923-15.891692-37.060923-15.891692s-0.433231-348.593231 0-354.776616 11.913846-26.919385 37.060923-26.466461c25.147077 0.413538 31.763692 26.466462 31.763692 26.466461V334.43446200000005c0.019692 0-8.585846 15.556923-31.763692 15.891692z m894.877538 37.080615h42.358154V747.460923s-81.211077 12.347077-90.013538-47.655385c-0.886154-67.072 0-270.040615 0-270.040615h47.655384v-42.358154zM537.462154 657.4473849999999c-159.389538 0-288.590769-129.201231-288.590769-288.59077 0-159.369846 129.201231-288.590769 288.590769-288.590769 159.369846 0 288.571077 129.220923 288.571077 288.590769 0 159.389538-129.201231 288.590769-288.571077 288.59077z m0-529.506462c-133.060923 0-240.935385 107.874462-240.935385 240.915692 0 133.060923 107.874462 240.935385 240.935385 240.935385s240.915692-107.874462 240.915692-240.935385c0-133.041231-107.854769-240.915692-240.915692-240.915692z m0 587.756308c-191.566769 0-346.840615-155.273846-346.840616-346.840616 0-191.547077 155.273846-346.820923 346.840616-346.820923 191.547077 0 346.820923 155.273846 346.820923 346.820923 0 191.547077-155.273846 346.840615-346.820923 346.840616z m-2.658462-672.492308c-178.392615 0-322.993231 144.620308-322.99323 323.012923 0 178.392615 144.600615 322.993231 322.99323 322.993231 178.392615 0 322.993231-144.600615 322.993231-322.993231 0.019692-178.392615-144.600615-323.012923-322.993231-323.012923z m497.74277 285.952c-29.124923 37.060923-63.547077 0-63.547077 0v-354.776615s4.430769-20.302769 37.060923-21.169231c14.119385-0.413538 26.486154 15.872 26.486154 15.872s-1.772308 323.879385 0 360.073846z"  horiz-adv-x="1032" />

    
    <glyph glyph-name="luntan" unicode="&#58938;" d="M943.686275 213.33333300000004v0.702745c-0.361412 0-0.682667-0.120471-1.044079-0.12047L943.686275 213.33333300000004z m-1.646432 642.630275H223.051294C179.059451 855.963608 140.54902 819.380706 140.54902 775.529412h742.90196c43.449725 0 60.235294-16.865882 60.235295-60.235294v-501.25804c43.289098 0.662588 80.313725 41.542275 80.313725 84.791216V775.529412c0 43.851294-38.008471 80.434196-81.960157 80.434196zM783.058824 695.215686H80.313725c-43.489882 0-80.313725-36.944314-80.313725-80.313725v-461.803922c0-58.066824 31.382588-80.313725 80.313725-80.313725h100.392157l148.801255-160.607373L481.882353 72.784314h301.176471c25.158275 0 80.313725 4.276706 80.313725 80.313725V614.901961c0 43.369412-36.864 80.313725-80.313725 80.313725zM230.901961 313.72549000000004a50.196078 50.196078 0 1 0 0 100.392157 50.196078 50.196078 0 0 0 0-100.392157z m220.862745 0a50.196078 50.196078 0 1 0 0 100.392157 50.196078 50.196078 0 0 0 0-100.392157z m200.784314 0a50.196078 50.196078 0 1 0 0 100.392157 50.196078 50.196078 0 0 0 0-100.392157z"  horiz-adv-x="1024" />

    
    <glyph glyph-name="tx-man" unicode="&#58988;" d="M512 896C229.216 896 0 666.784 0 384s229.248-512 512-512 512 229.248 512 512S794.752 896 512 896z m0-992c-276.992 2.752-352 160-352 160 41.024 29.568 135.616 31.68 181.6 51.36 21.152 8.64 42.272 18.496 59.68 34.496 9.952 9.888 19.904 22.176 18.656 35.712 1.248 24.672 1.248 17.28 1.248 41.92-9.952 7.36-17.408 18.496-23.616 29.568-11.2 20.928-19.904 44.32-23.648 67.744a29.312 29.312 0 0 0-18.656 11.072c-11.2 13.568-13.664 30.784-16.16 46.784-1.248 14.784 2.496 30.784 14.912 39.424-11.2 48.032-21.152 98.496-13.696 149.024 3.744 25.888 12.448 50.496 28.608 71.424 19.872 28.352 53.44 45.568 85.792 52.992 32.32 6.144 64.672 9.856 96.992 3.68 18.624-3.68 39.744-11.104 50.976-28.32 2.464-4.928 8.704-3.712 12.448-4.928 24.864-4.928 47.264-19.712 59.648-40.672 16.192-25.888 21.152-56.672 21.152-86.208 0-39.392-8.704-78.816-19.872-116.992 7.424-6.144 13.664-14.784 14.912-24.64 2.496-13.568-1.248-28.352-4.96-41.888-4.96-13.536-13.696-28.352-29.856-30.784a210.688 210.688 0 0 0-22.368-66.496c-6.24-11.136-12.448-22.176-23.616-29.6 0-24.672-1.248-17.28 1.248-41.92 0-13.536 8.672-24.64 16.128-33.248 21.184-22.144 51.008-33.248 79.616-44.352 40.992-16 120.736-19.36 156.8-45.216C864 64 778.048-98.68799999999999 512-96z"  horiz-adv-x="1024" />

    
    <glyph glyph-name="BI" unicode="&#58954;" d="M232.896 159.00800000000004H118.24c-31.68 0-57.344-25.696-57.344-57.408v-172.192c0-31.68 25.664-57.408 57.344-57.408h114.656c31.68 0 57.344 25.728 57.344 57.408v172.192c0 31.712-25.664 57.408-57.344 57.408z m344.032 114.784h-114.656c-31.68 0-57.344-25.696-57.344-57.376v-287.008c0-31.68 25.696-57.408 57.344-57.408h114.656c31.68 0 57.376 25.728 57.376 57.408v287.008c0 31.68-25.664 57.376-57.376 57.376z m344.064 114.816h-114.688c-31.68 0-57.376-25.728-57.376-57.408v-401.792c0-31.68 25.696-57.408 57.376-57.408h114.688c31.616 0 57.312 25.728 57.312 57.408V331.20000000000005c0 31.68-25.664 57.408-57.312 57.408z m-394.496-6.976l81.184 81.184 175.872 176.096 71.68-71.776L936.384 891.84 611.936 810.656l90.496-90.624L526.496 544l-162.112 162.336L40 381.63199999999995l81.12-81.184L364.384 544l162.112-162.368z m0 0"  horiz-adv-x="1024" />

    
    <glyph glyph-name="jiantou" unicode="&#58955;" d="M247.328 874.4C224 846.496 224 803.616 247.328 775.648L607.68 380.672 247.328-14.303999999999974c-13.696-28.32-8.864-63.136 11.808-85.792 20.672-22.688 52.448-27.904 78.24-12.96L748.16 328.352a81.92 81.92 0 0 1 19.808 52.352 76.672 76.672 0 0 1-19.808 51.328L341.92 874.4C329.408 888.224 312.384 896 294.624 896S259.872 888.224 247.328 874.4z m0 0"  horiz-adv-x="1024" />

    
    <glyph glyph-name="mingma" unicode="&#58956;" d="M513.344 717.92C231.328 717.92 2.656 405.856 2.656 405.856s228.672-312.064 510.688-312.064c282.016 0 510.656 312.064 510.656 312.064s-228.672 312.064-510.656 312.064z m0-504.672c-107.648 0-194.88 86.176-194.88 192.608 0 106.368 87.264 192.608 194.88 192.608s194.88-86.24 194.88-192.608c0-106.432-87.264-192.608-194.88-192.608z m0 0M435.712 405.856c0-42.336 34.752-76.672 77.632-76.672 42.848 0 77.568 34.336 77.568 76.672 0 42.368-34.72 76.704-77.568 76.704-42.88 0-77.632-34.336-77.632-76.704z m0 0"  horiz-adv-x="1024" />

    
    <glyph glyph-name="yincangmima" unicode="&#58957;" d="M1019.84 585.6320000000001c10.112 17.312 3.392 39.2-13.536 49.568a36.032 36.032 0 0 1-48.384-13.792c-101.216-182.24-246.368-272.192-440.96-272.192-194.624 0-343.136 89.952-448.864 272.192-10.112 17.28-31.488 23.04-48.352 12.64a36.48 36.48 0 0 1-12.416-49.6c46.112-80.704 101.248-144.16 163.136-193.76l-58.528-64.576a35.808 35.808 0 0 1 2.272-50.72c14.624-13.856 37.12-12.704 50.624 2.272l65.248 72.672c20.224-11.488 41.6-23.072 64.128-31.136l-37.12-109.6c-6.752-18.4 3.392-39.2 21.408-46.08 17.984-6.944 38.24 3.424 44.992 21.92l37.12 109.6a569.28 569.28 0 0 1 119.264-18.464v-111.872c0-19.552 15.776-35.712 36-35.712s34.912 16.16 34.912 35.712v111.872a575.232 575.232 0 0 1 129.376 20.736l38.208-112.992c15.744-44.96 82.112-21.952 67.456 24.224l-38.208 112.992c23.616 10.4 46.08 23.104 67.52 36.928l64.064-80.736c30.4-36.864 84.384 8.096 55.168 46.144l-61.888 77.28c57.376 49.536 105.728 110.656 147.36 184.48z m0 0"  horiz-adv-x="1024" />

    
    <glyph glyph-name="gerenzhongxin" unicode="&#58958;" d="M511.008 893.984C229.248 893.984 0 664.736 0 383.00800000000004 0 101.21600000000001 229.248-128 511.008-128c281.792 0 511.008 229.216 511.008 511.008 0 281.728-229.248 510.976-511.008 510.976z m0-936.832c-249.632 0-425.824 176.224-425.824 425.856S261.376 808.832 511.008 808.832 936.8 632.64 936.8 383.00800000000004c0-391.84-425.792-425.856-425.792-425.856z m0 0M610.464 374.304c48.032 32.128 70.848 88.544 70.848 150.624 0 98.944-71.36 170.336-170.304 170.336s-170.336-71.392-170.336-170.336c0-62.08 22.816-118.496 70.816-150.624a271.552 271.552 0 0 1-172.064-253.344l-0.032-0.224c0-15.616 9.28-49.536 44.48-50.016 37.856-0.512 40.672 34.4 40.672 50.016 0 0.416-0.064 0.704-0.128 1.088 0.128 118.56 67.936 204.384 186.56 204.384 118.688 0 186.496-85.92 186.496-204.608 0-0.16 0.128-10.016 4.256-16.288 5.248-8.064 4.448-34.304 36.384-34.624 39.488-0.416 44.48 34.336 44.48 49.92v0.192 0.8a271.52 271.52 0 0 1-172.128 252.704z m-99.456 37.056c-66.912 0-86.016 75.936-85.184 113.568 1.568 66.912 38.656 85.664 85.184 85.184 46.496-0.48 83.904-34.208 85.184-85.184 1.12-46.496-18.272-113.568-85.184-113.568z"  horiz-adv-x="1024" />

    
    <glyph glyph-name="yingyong" unicode="&#58959;" d="M122.304 768.288c-20.768 0-27.712-6.976-27.712-28v-223.808c0-21.024 6.944-28 27.712-28h221.472c20.736 0 27.68 6.976 27.68 28V740.288c0 20.992-6.912 28-27.68 28H122.304z m0 83.872h221.472c62.24 0 110.752-48.864 110.752-111.872v-223.808c0-63.04-48.512-111.904-110.752-111.904H122.304c-62.272 0-110.752 48.864-110.752 111.904V748.096c0 63.04 48.448 104.064 110.752 104.064z m0-615.392c-20.768 0-27.712-7.008-27.712-28v-223.808c0-20.96 6.944-27.968 27.712-27.968h221.472c20.736 0 27.68 7.008 27.68 27.968 0 0 0.48 230.752 0 223.808 1.248 19.008-7.2 27.328-27.68 28H122.304z m0 83.904h221.472c62.24 0 110.752-48.864 110.752-111.904v-223.808c0-63.008-42.624-111.744-104.832-111.744H124.256c-62.24 0-112.704 51.104-112.704 114.112v228.224c0 63.008 48.448 105.12 110.752 105.12z m525.984-83.904c-20.736 0-27.68-7.008-27.68-28v-223.808c0-20.96 6.944-27.968 27.68-27.968h221.504c20.736 0 27.68 7.008 27.68 27.968v223.808c0 20.992-6.944 28-27.68 28h-221.504z m0 83.904h221.504c62.272 0 110.752-48.864 110.752-111.904v-223.808c0-63.008-42.624-111.744-104.896-111.744h-225.44c-62.176 0-112.672 51.104-112.672 114.112v228.224c-0.032 63.008 48.512 105.12 110.752 105.12z m-27.68 335.68c-14.72-14.848-14.72-41.056 0-55.936l110.752-111.904c14.624-14.848 40.672-14.88 55.328 0l110.784 111.904c14.656 14.816 14.656 41.12 0 55.936l-110.784 111.936c-14.72 14.88-40.672 14.816-55.328 0l-110.752-111.936z m-83.04 55.936l138.4 139.872c58.016 50.048 101.472 56.384 167.712-5.44l131.488-133.12c44-44.576 71.648-88.864 0-161.408l-131.488-133.12c-52.608-51.84-115.36-45.472-159.392 0l-131.456 133.12c-42.016 42.496-67.456 107.296-15.264 160.096z"  horiz-adv-x="1024" />

    
    <glyph glyph-name="huawei" unicode="&#58960;" d="M470.556444 582.485333s-44.174222 2.048-72.362666-35.242666-7.025778-94.264889 6.343111-123.676445c13.368889-29.383111 83.911111-144.696889 86.499555-147.256889s5.688889-1.479111 5.831112 0.796445c0.170667 2.275556 8.049778 167.594667 1.735111 208.355555-6.371556 40.760889-25.144889 92.529778-28.046223 97.024z m-152.746666-76.885333c-5.063111-0.568889-41.301333-37.575111-44.572445-73.784889s11.861333-60.273778 54.101334-89.116444c42.524444-30.890667 143.616-87.722667 145.464889-82.801778 1.848889 4.864-39.168 79.530667-72.732445 133.802667-33.592889 54.328889-77.226667 112.469333-82.261333 111.900444z m305.521778 41.614222c-28.16 37.319111-72.391111 35.242667-72.391112 35.242667-2.901333-4.465778-21.674667-56.263111-28.017777-97.024-6.371556-40.760889 1.564444-206.08 1.735111-208.355556s3.271111-3.356444 5.831111-0.796444 73.130667 117.902222 86.528 147.256889c13.312 29.411556 34.474667 86.385778 6.314667 123.676444zM238.421333 366.819556c-2.503111-0.682667-12.117333-46.108444 7.850667-80.384 19.968-34.247111 58.823111-44.714667 76.657778-47.502223 20.053333-2.958222 137.955556-1.621333 137.187555 0.768-0.711111 2.133333-93.326222 59.505778-124.359111 75.377778-31.004444 15.928889-94.833778 52.451556-97.336889 51.740445z m92.984889-195.157334c30.606222-13.994667 78.222222 17.436444 91.420445 26.624l34.901333 27.221334-173.312-4.778667s16.412444-35.043556 46.990222-49.066667z m354.332445 143.445334c-31.032889-15.900444-123.676444-73.244444-124.330667-75.377778-0.796444-2.389333 117.105778-3.726222 137.159111-0.768 17.806222 2.787556 56.689778 13.255111 76.629333 47.502222 19.996444 34.275556 10.353778 79.701333 7.879112 80.384-2.503111 0.682667-66.304-35.84-97.336889-51.740444z m62.577777 116.736c-3.299556 36.181333-39.566222 73.216-44.572444 73.784888-5.063111 0.568889-48.696889-57.571556-82.289778-111.900444-33.564444-54.272-74.581333-128.938667-72.732444-133.802667 1.877333-4.920889 102.940444 51.911111 145.436444 82.801778 42.296889 28.814222 57.400889 52.906667 54.158222 89.116445z m-149.617777-233.557334c13.169778-9.159111 60.871111-40.618667 91.420444-26.624 30.606222 14.023111 46.990222 49.066667 46.990222 49.066667l-173.283555 4.778667 34.872889-27.221334zM512 896C229.262222 896 0 666.766222 0 384c0-282.737778 229.233778-512 512-512 282.794667 0 512 229.262222 512 512 0 282.766222-229.205333 512-512 512z m0-935.708444C278.016-39.708444 88.291556 149.987556 88.291556 384 88.291556 618.040889 278.016 807.736889 512 807.736889c234.040889 0 423.736889-189.696 423.736889-423.736889 0-234.012444-189.667556-423.708444-423.736889-423.708444z"  horiz-adv-x="1024" />

    
    <glyph glyph-name="guanyu" unicode="&#58961;" d="M519.082667 896c-282.766222 0-512-229.233778-512-512s229.233778-512 512-512 512 229.233778 512 512-229.262222 512-512 512z m0-938.666667c-235.633778 0-426.666667 191.032889-426.666667 426.666667s191.032889 426.666667 426.666667 426.666667c235.633778 0 426.666667-191.032889 426.666666-426.666667s-191.061333-426.666667-426.666666-426.666667zM588.316444 493.624889h-20.849777L448.256 469.333333l-4.295111-17.664c4.693333 0.256 8.96 0.483556 12.686222 0.483556 7.594667 0 13.653333-2.446222 18.147556-7.594667 4.465778-5.148444 6.826667-11.036444 6.826666-17.664 0-10.296889-2.360889-25.486222-7.025777-45.624889l-48.952889-211.370666c-4.096-16.952889-6.030222-30.663111-6.030223-41.699556 0-16.412444 4.494222-30.179556 13.454223-40.96 8.96-10.752 21.048889-16.128 36.266666-16.128 39.765333 0 77.624889 38.997333 113.123556 116.48l-12.288 8.846222c-14.620444-28.700444-27.306667-48.298667-38.030222-59.363555-3.697778-4.380444-7.623111-6.599111-11.719111-6.599111-2.332444 0-4.693333 1.507556-6.627556 4.408889a17.408 17.408 0 0 0-3.328 8.846222c0 5.888 1.934222 17.92 5.660444 35.811555l72.192 314.083556z m15.189334 184.149333c-9.955556 12.743111-22.215111 19.114667-36.835556 19.114667-14.250667 0-26.339556-6.371556-36.295111-19.114667-9.955556-12.743111-14.819556-28.188444-14.819555-46.108444s5.063111-33.109333 15.018666-45.852445c10.154667-12.487111 22.044444-18.887111 36.124445-18.887111 14.222222 0 26.510222 6.371556 36.664889 18.887111 10.097778 12.771556 15.388444 27.960889 15.189333 45.852445-0.028444 17.891556-5.12 33.336889-15.047111 46.108444z"  horiz-adv-x="1031" />

    
    <glyph glyph-name="xiaomi" unicode="&#58962;" d="M531.484444 559.872H231.736889c-1.109333 0-2.161778-0.426667-2.958222-1.194667S227.555556 556.828444 227.555556 555.747556v-361.500445c0-2.275556 1.848889-4.152889 4.181333-4.152889h80.042667a4.181333 4.181333 0 0 1 2.958222 1.251556 4.067556 4.067556 0 0 1 1.223111 2.929778v283.733333c0 2.332444 1.877333 4.181333 4.181333 4.181333h172.117334c32.341333 0 58.567111-26.197333 58.567111-58.510222v-229.404444c0-2.304 1.877333-4.152889 4.152889-4.152889h78.876444a4.152889 4.152889 0 0 1 4.124444 4.152889h0.056889v259.043555a106.552889 106.552889 0 0 1-106.552889 106.552889z m260.778667 0H712.248889a4.152889 4.152889 0 0 1-4.181333-4.152889v-361.472a4.266667 4.266667 0 0 1 1.223111-2.958222 4.266667 4.266667 0 0 1 2.958222-1.194667h80.014222a4.152889 4.152889 0 0 1 4.181333 4.152889V555.690667a4.209778 4.209778 0 0 1-1.223111 2.958222 4.209778 4.209778 0 0 1-2.958222 1.223111zM472.234667 415.857778h-80.014223a4.181333 4.181333 0 0 1-4.181333-4.181334v-217.429333a4.266667 4.266667 0 0 1 1.223111-2.958222 4.209778 4.209778 0 0 1 2.958222-1.194667h80.014223c1.109333 0 2.161778 0.426667 2.958222 1.194667s1.223111 1.820444 1.223111 2.958222v217.457778a4.209778 4.209778 0 0 1-1.194667 2.958222 4.437333 4.437333 0 0 1-2.986666 1.194667zM512 896C229.262222 896 0 666.766222 0 384c0-282.737778 229.233778-512 512-512 282.794667 0 512 229.262222 512 512 0 282.766222-229.205333 512-512 512z m0-935.708444C278.016-39.708444 88.291556 149.987556 88.291556 384 88.291556 618.040889 278.016 807.736889 512 807.736889c234.040889 0 423.736889-189.696 423.736889-423.736889 0-234.012444-189.667556-423.708444-423.736889-423.708444z"  horiz-adv-x="1024" />

    
    <glyph glyph-name="xiaoxi" unicode="&#58963;" d="M540.444444-128c62.776889 0 91.847111 31.345778 113.777778 85.333333h-256c21.987556-54.101333 63.118222-85.333333 125.525334-85.333333H540.444444z m369.777778 199.111111c-12.060444 22.869333-29.297778 79.189333-28.444444 199.111111v142.222222c0 86.897778-18.716444 161.962667-66.958222 231.196445-41.358222 59.392-98.218667 105.671111-162.161778 132.437333A130.190222 130.190222 0 0 1 523.093333 896a130.275556 130.275556 0 0 1-129.621333-120.490667c-61.639111-27.022222-117.418667-72.988444-159.089778-131.640889C184.348444 573.468444 170.666667 498.147556 170.666667 412.444444v-142.222222c-0.028444-83.427556-16.469333-176.270222-28.444445-199.111111-11.264 0.028444-56.888889 0.824889-56.888889-37.205333C85.333333 0.796444 101.859556-14.222222 113.777778-14.222222h824.888889c22.584889 0 28.444444 33.706667 28.444444 48.128 0 27.676444-27.164444 36.181333-56.888889 37.205333zM256 270.222222v142.222222c0 137.301333 76.288 242.119111 199.111111 284.444445 16.611556 5.717333 13.255111 41.386667 10.552889 59.221333a61.639111 61.639111 0 0 0-0.824889 9.671111c0 31.004444 26.140444 56.234667 58.282667 56.234667s58.282667-25.230222 58.282666-56.234667c0-3.072-0.398222-7.224889-0.824888-11.776-1.706667-17.408 0.597333-51.825778 16.753777-57.116444 124.529778-40.760889 199.111111-142.620444 199.111111-284.444445v-142.222222c0-2.417778 1.877333-62.151111 0-113.777778-1.052444-28.387556 8.903111-62.72 27.278223-84.878222L227.555556 71.111111c10.126222 11.548444 28.188444 55.950222 28.444444 85.333333 0.540444 62.378667 0 111.388444 0 113.777778z"  horiz-adv-x="1024" />

    
    <glyph glyph-name="oppo" unicode="&#58964;" d="M512 896C229.262222 896 0 666.766222 0 384c0-282.737778 229.233778-512 512-512 282.794667 0 512 229.262222 512 512 0 282.766222-229.205333 512-512 512z m0-935.708444C278.016-39.708444 88.291556 149.987556 88.291556 384 88.291556 618.040889 278.016 807.736889 512 807.736889c234.040889 0 423.736889-189.696 423.736889-423.736889 0-234.012444-189.667556-423.708444-423.736889-423.708444zM209.550222 481.848889c-32.341333 0-58.311111-10.581333-77.994666-31.744-19.655111-21.162667-29.496889-48.583111-29.496889-82.289778 0-31.857778 9.614222-57.884444 28.899555-78.108444 19.256889-20.252444 44.316444-30.350222 75.150222-30.350223 31.573333 0 57.116444 10.439111 76.572445 31.317334 19.512889 20.878222 29.240889 48.099556 29.240889 81.607111 0 32.113778-9.358222 58.424889-28.131556 78.876444-18.744889 20.48-43.52 30.691556-74.24 30.691556z m39.310222-163.669333c-10.012444-12.714667-23.978667-19.086222-41.955555-19.086223-17.578667 0-31.402667 6.627556-41.528889 19.911111-10.097778 13.312-15.132444 30.378667-15.132444 51.342223 0 21.191111 5.176889 38.485333 15.473777 51.797333 10.325333 13.340444 24.490667 19.996444 42.439111 19.996444 17.664 0 31.402667-6.513778 41.102223-19.512888s14.592-30.72 14.592-53.134223c0-21.504-4.977778-38.570667-14.990223-51.313777z m173.482667 160.056888h-74.040889v-215.125333h45.824v75.008h23.608889c24.263111-0.568889 44.458667 5.802667 60.643556 19.086222 16.128 13.283556 24.234667 30.947556 24.234666 52.992 0 45.368889-26.766222 68.039111-80.270222 68.039111z m-8.334222-104.988444h-19.854222v69.432889h20.280889c26.680889 0 39.992889-11.434667 39.992888-34.304 0-23.409778-13.482667-35.128889-40.419555-35.128889z m195.271111 104.988444h-74.040889v-215.125333h45.824v75.008h23.608889c24.263111-0.568889 44.458667 5.802667 60.643556 19.086222 16.128 13.283556 24.234667 30.947556 24.234666 52.992 0 45.368889-26.766222 68.039111-80.270222 68.039111z m-8.334222-104.988444h-19.854222v69.432889h20.280888c26.680889 0 39.992889-11.434667 39.992889-34.304 0-23.409778-13.482667-35.128889-40.419555-35.128889z m289.507555 77.909333c-18.716444 20.451556-43.491556 30.691556-74.211555 30.691556-32.341333 0-58.311111-10.581333-77.994667-31.744-19.655111-21.162667-29.496889-48.583111-29.496889-82.289778 0-31.857778 9.614222-57.884444 28.899556-78.108444 19.285333-20.252444 44.316444-30.350222 75.150222-30.350223 31.573333 0 57.088 10.439111 76.572444 31.317334 19.512889 20.878222 29.240889 48.099556 29.240889 81.607111-0.028444 32.113778-9.386667 58.424889-28.16 78.876444z m-34.929777-132.977777c-10.012444-12.714667-23.978667-19.086222-41.955556-19.086223-17.578667 0-31.431111 6.627556-41.528889 19.911111-10.097778 13.312-15.132444 30.378667-15.132444 51.342223 0 21.191111 5.176889 38.485333 15.473777 51.797333 10.325333 13.340444 24.490667 19.996444 42.439112 19.996444 17.664 0 31.402667-6.513778 41.102222-19.512888s14.592-30.72 14.592-53.134223c0-21.504-4.977778-38.570667-14.990222-51.313777z"  horiz-adv-x="1024" />

    
    <glyph glyph-name="mima" unicode="&#58965;" d="M873.75988 459.326091a108.327096 108.327096 0 0 1-76.075101 32.053957h-6.563564v116.98421c-0.339495 115.739397-68.238432 220.049139-172.519883 264.975603-104.25316 44.926464-224.632318 21.72766-305.799839-58.902328l-2.489628-2.574501a288.853396 288.853396 0 0 1-83.006451-203.498774v-118.568519h-7.214262c-28.291224-0.22633-55.365925-11.712567-75.480985-32.025665a108.977794 108.977794 0 0 1-31.346677-77.291624v-399.302334a108.270514 108.270514 0 0 1 31.318385-77.20675 104.451199 104.451199 0 0 1 75.480986-32.053957h577.593627a104.394616 104.394616 0 0 1 72.651863 29.507747l3.423238 3.168617a109.34558 109.34558 0 0 1 31.346676 77.20675V381.440352a112.34445 112.34445 0 0 1-31.318385 77.885739z m-557.195655 149.038167a197.529325 197.529325 0 0 0 56.044915 138.768454l2.178424 2.54621a190.48481 190.48481 0 0 0 134.383314 56.4127c106.431584-0.537533 192.465196-88.862734 192.663234-197.727364v-118.568519H316.564225v118.568519z m501.179032-628.461247a17.56885 17.56885 0 0 0-5.629954-13.466623 15.814794 15.814794 0 0 0-11.938896-4.470013H220.091152a16.691822 16.691822 0 0 0-12.844216 5.403624 18.898538 18.898538 0 0 0-5.629953 13.494913V381.440352a19.351197 19.351197 0 0 0 5.629953 13.466622 19.209741 19.209741 0 0 0 12.844216 5.799701h577.593627a19.238032 19.238032 0 0 0 13.155419-5.799701 17.936636 17.936636 0 0 0 5.629954-13.466622v-400.264236l1.273105-1.273105zM509.170878 330.204945a104.281451 104.281451 0 0 1-75.367821-31.771044 109.175833 109.175833 0 0 1-30.809143-77.20675 113.249769 113.249769 0 0 1 31.346676-77.574536c13.63637-13.579787 30.469648-23.368551 48.887235-28.517554v-55.422508c-0.254621-7.299136 2.348172-14.371942 7.214262-19.6624s11.655984-8.402493 18.757082-8.54395a27.555652 27.555652 0 0 1 26.961536 27.555652v56.073206a110.505521 110.505521 0 0 1 48.519449 28.517554 111.693752 111.693752 0 0 1 31.318385 77.574536 109.600201 109.600201 0 0 1-31.233511 77.235041 104.960441 104.960441 0 0 1-75.59415 31.742753z m38.249734-147.765062a56.469283 56.469283 0 0 0-36.665426-16.012833H509.170878a57.148272 57.148272 0 0 0-36.637135 16.012833 57.912135 57.912135 0 0 0-15.333844 38.787268c0 29.649203 23.029056 53.923073 51.970979 54.8001 14.371942 0.028291 28.149768-5.856283 38.249734-16.324036 9.788763-10.298005 15.305552-24.104123 15.362135-38.447773a58.562833 58.562833 0 0 0-15.362135-38.815559z m0 0"  horiz-adv-x="1024" />

    
    <glyph glyph-name="qinglihuancun" unicode="&#58966;" d="M960.556429 622.684925H665.282853V774.943807c0 66.728813-52.649204 121.027749-117.386961 121.027749h-43.262798c-64.68087 0-117.386961-54.32738-117.386962-121.027749v-152.258882H91.830338C56.8162 622.599594 28.457876 593.359518 28.457876 557.349851v-175.639565c0-36.066554 28.443654-65.335074 63.372462-65.335074h1.47907v-221.775173a731.88367 731.88367 0 0 0-20.138107-167.988223c-3.470126-12.941863-0.881753-26.822366 7.025582-37.488736 7.878892-10.723258 20.166551-17.037749 33.222189-17.094636h825.605511c13.027194-0.028444 25.37174 6.257604 33.250632 17.009305 7.907336 10.751701 10.467265 24.632205 6.85492 37.574067-0.170662 0.767979-20.024333 75.660121-20.024332 167.988223v221.689842h1.507513C995.542124 316.289881 1023.985778 345.643732 1023.985778 381.653399v175.781783c-0.056887 36.009666-28.386767 65.164412-63.372462 65.249743h-0.056887zM111.940002 536.614427h317.032971c11.093025 0 21.730952 4.550985 29.552957 12.628983a43.518791 43.518791 0 0 1 12.202328 30.406266V774.943807c0 19.683009 14.961362 35.071026 33.904836 35.071026h43.262798c19.114136 0 33.990167-15.388017 33.990167-35.071026v-195.265687c0-23.778895 18.659037-43.035249 41.64151-43.035249h317.061415v-134.282492H111.854671v134.197161l0.085331 0.056887z m775.544679-578.62926h-124.753868v204.481431a43.319686 43.319686 0 0 1-20.308769 38.797145 40.759757 40.759757 0 0 1-42.836144 0c-13.169412-8.134885-20.93453-23.03936-20.280325-38.797145v-204.452987h-111.413794v204.452987c0 23.722008-18.687481 42.978362-41.726841 42.978362-23.067804 0-41.726841-19.256354-41.726841-42.978362v-204.452987h-111.413794v204.452987c0 15.33113-7.964223 29.49607-20.849199 37.232744a40.674426 40.674426 0 0 1-41.726841 0c-12.941863-7.70823-20.877642-21.901614-20.877642-37.232744v-204.452987H164.987417c7.679787 45.083192 11.633455 90.706814 11.804117 136.472653v221.775173h698.860587v-221.775173c0-53.644732 5.830949-101.88517 11.718785-136.529541h0.113775z m0 0"  horiz-adv-x="1024" />

    
    <glyph glyph-name="shangchuantupian" unicode="&#58967;" d="M510.492444 503.808c-99.128889-3.356444-177.066667-84.565333-174.734222-182.129778 2.332444-97.592889 83.996444-175.132444 183.153778-173.937778 99.185778 1.194667 178.915556 80.696889 178.773333 178.289778a179.399111 179.399111 0 0 1-56.149333 127.061334 185.400889 185.400889 0 0 1-131.043556 50.716444z m408.149334 112.668444h-75.576889a46.791111 46.791111 0 0 0-40.732445 27.392l-31.374222 90.965334a45.397333 45.397333 0 0 1-40.704 27.420444H302.364444a46.279111 46.279111 0 0 1-40.704-27.420444L230.229333 644.266667c-6.883556-16.213333-22.840889-26.936889-40.704-27.363556H102.314667C46.819556 617.358222 1.251556 573.895111 0 519.281778V83.057778c1.479111-54.385778 46.990222-97.649778 102.314667-97.137778h816.327111c55.324444-0.512 100.835556 42.752 102.371555 97.137778V519.281778c-1.109333 54.613333-46.848 98.076444-102.371555 97.194666zM510.492444 83.057778c-135.196444 4.721778-241.408 115.598222-238.193777 248.718222 3.185778 133.063111 114.602667 238.876444 249.856 237.312 135.310222-1.564444 244.110222-109.937778 244.110222-243.057778-2.503111-136.561778-116.992-245.276444-255.772445-242.972444z m365.141334 353.393778a41.443556 41.443556 0 0 0-40.533334 42.012444 41.528889 41.528889 0 0 0 42.296889 40.220444 41.386667 41.386667 0 0 0 41.216-41.329777 41.358222 41.358222 0 0 0-12.856889-29.240889 42.439111 42.439111 0 0 0-30.122666-11.662222z m0 0"  horiz-adv-x="1024" />

    
    <glyph glyph-name="yindao" unicode="&#58970;" d="M716.569304 885.313256c52.010402-1.09121 105.266206-3.113508 156.760655-7.650333 13.456283-1.346221 18.01683-17.257727 14.185733-28.917071-23.994764-46.833083-45.475001-95.51648-64.725373-144.917466-8.688169-23.472881-43.197693-6.446443-34.663717 18.12951 13.533379 35.292349 26.568597 59.423515 42.474173 86.21747-89.425866-52.134942-192.236849-80.797002-257.881448-167.121221-12.910678-17.489016-25.26982-38.162706-33.026902-60.384254 1.09121 0.160123 0.925157 1.257264 0.925157 1.257264l0.160123-1.097141c19.552827 9.542159 41.602391 17.299241 61.943973 21.456514 154.346945 30.773315 302.698165-92.308084 208.883736-249.388985C726.449501 211.40197 516.711775 324.300718 487.664232 454.095432a133.12172 133.12172 0 0 0-4.311466 29.278832l-1.091211-0.160123-0.320246 2.18242C287.871938 364.319667 167.666827-1.004477 178.822079-106.899315c1.506345-25.311333-40.244308-27.855514-39.325082-2.520458 0.889574 231.852525 172.351914 559.559568 345.700151 655.230241 0 1.109002 0.919226 1.257264 0.759103 2.348474 0.765033 2.348474 1.856244 2.514528 2.947454 2.674651 9.761587 45.8249 34.153695 90.475563 62.922504 126.924357 71.33194 84.930554 173.051712 113.444352 264.333822 168.081962-33.353078 1.642746-58.379748-0.9726-98.191131-0.213498-24.237915-0.343968-26.728721 39.17682-1.399596 39.686842zM530.980535 527.105701c-0.919226-1.251333-2.941523-2.674651-5.966074-4.240301l-0.61084-3.439685-1.850313-2.514528c-2.929662-24.854686 1.061558-51.945166 9.014345-76.29576 29.065334-77.612329 120.691412-144.929326 197.034616-109.115094 59.909815 27.772487 87.575553 87.350194 70.080606 145.706221-13.634198 47.835336-44.959048 65.348075-91.193152 79.510086-62.424343 19.576549-123.644796 8.207799-176.509188-29.610939z m0 0"  horiz-adv-x="1024" />

    
    <glyph glyph-name="jiazai" unicode="&#58971;" d="M173.628123 42.965496h330.329386a261.352559 261.352559 0 0 0-0.400783 127.448924c-33.37044 16.68522-62.174065 25.966505-80.48351 25.966505-48.083387 0-163.761953-60.497106-249.445093-153.415429z m390.615553-111.997693H82.450041a18.203976 18.203976 0 0 0-18.235616 18.172335c0 9.871913 7.878546 17.834834 17.67663 18.151241l0.812112-1.603131h454.962283a262.639283 262.639283 0 0 0-28.835267 60.539293H130.754913C148.769044 158.601875 283.516433 274.470285 376.677335 314.189968l17.908663 7.657061V444.855701l-19.132105 7.150808C278.917978 488.171882 147.735446 605.959831 130.62835 741.783005h584.235822C696.850041 609.387579 562.092105 493.529715 468.94175 453.810032l-17.919209-7.635967v-122.977031l19.121557-7.192997c25.945411-9.724256 54.390442-25.386425 82.455784-45.678689a270.233062 270.233062 0 0 0 41.618127 42.29313c-28.529406 21.378597-57.427953 38.527881-84.196024 50.625193v44.655639c109.244948 53.536142 248.485323 182.809682 264.368977 334.801277 37.304439 5.463302 66.044783 37.504831 66.044783 76.21201 0 42.525162-34.646617 77.09795-77.287795 77.09795H82.450041C39.829957 896 5.18334 861.437759 5.18334 818.90205c0-38.675538 28.687609-70.70652 65.939314-76.201463 15.430137-159.690844 157.033021-289.407354 264.49554-337.944258v-44.634545C226.373246 306.575095 87.153965 177.301555 71.249217 25.30996 33.934231 19.857205 5.18334-12.194871 5.18334-50.859862c0-42.493521 34.646617-77.108497 77.266701-77.108497h558.300958a271.878381 271.878381 0 0 0-76.507323 58.936162zM64.203878 818.880956c0 10.061757 8.163312 18.22507 18.246163 18.225069h680.687362a18.246163 18.246163 0 0 0 17.550067-18.225069c0-9.77699-7.688701-16.379359-17.486785-16.769595l-680.750644-1.434381c-10.082851 0-18.246163 8.163312-18.246163 18.203976z m547.173962-214.450428H234.251792c65.085014-83.900711 152.772067-138.480997 188.367906-138.480997 36.397404 0 123.957895 54.611927 188.758142 138.480997zM777.765975 343.025234c-132.606365 0-240.132166-105.458605-240.132166-235.50207 0-130.064559 107.525801-235.533711 240.132166-235.533711 132.616912 0 240.132166 105.469152 240.132166 235.533711 0 130.043465-107.515254 235.50207-240.132166 235.50207z m0-431.073519c-110.099248 0-199.399979 87.592131-199.39998 195.560902 0 107.968771 89.300731 195.550355 199.39998 195.550355 110.099248 0 199.399979-87.581584 199.399979-195.550355s-89.300731-195.560902-199.399979-195.560902z m0 128.271583c-14.217242 0-25.734473-11.306293-25.734473-25.238768s11.517231-25.238768 25.734473-25.238768 25.723926 11.306293 25.723926 25.238768-11.506685 25.238768-25.723926 25.238768z m-12.877784 33.64466h25.74502c2.351962 0 4.282048 1.898445 4.282048 4.218766V221.060707a4.260954 4.260954 0 0 1-4.282048 4.197672h-25.74502a4.260954 4.260954 0 0 1-4.282047-4.197672V78.086724c0-2.330868 1.940632-4.218766 4.282047-4.218766z"  horiz-adv-x="1024" />

    
    <glyph glyph-name="wuquanxian" unicode="&#58972;" d="M859.479005-6.219581v13.685308c0 9.88989-8.016955 17.906845-17.906845 17.906845H17.906845c-9.88989 0-17.906845-8.016955-17.906845-17.906845v-13.685308c0-9.88989 8.016955-17.906845 17.906845-17.906845h823.675225c9.88989 0 17.896935 8.016955 17.896935 17.906845z m311.779276-70.685957h-526.601956c-9.88989 0-17.916755-8.016955-17.916755-17.906845v-13.685309c0-9.88989 8.026865-17.906845 17.916755-17.906845h526.611866c9.87998 0 17.906845 8.016955 17.906845 17.906845v13.685309a17.916755 17.916755 0 0 1-17.916755 17.906845z m-678.121413 0h-214.347014c-9.88989 0-17.906845-8.016955-17.906845-17.906845v-13.685309c0-9.88989 8.016955-17.906845 17.906845-17.906845h214.347014c9.88989 0 17.906845 8.016955 17.906845 17.906845v13.685309c0 9.8998-8.016955 17.906845-17.906845 17.906845z m-213.851528 214.059632c-9.20612 52.392634 2.487337-18.957274 9.671876-18.650073l73.470585-1.070249c14.200614 2.457608 31.978632 14.32944 39.777574 26.349918l88.29551 136.37742 0.782868 0.931513 77.0579-6.005284 103.120436 159.645418s22.940977 46.38735 107.936554 91.020681c77.791219 35.575857 142.987197 28.143575 142.987197 28.143575 18.927545 46.783738 23.86258 101.94118 14.269981 155.731083C915.122023 832.300388 797.959529 914.124858 675.039494 892.551421 552.268104 870.977984 448.533266 776.518634 470.21571 654.004897c4.687293-26.498563 17.629373-67.802232 32.910145-97.551179l-223.067558-317.903478c-8.264698-11.723186-12.95199-32.830867-10.454743-47.001751l9.681786-54.394395z m373.913154 631.961987C687.050061 817.188081 753.494663 829.050003 801.695489 795.317353c48.200826-33.911026 60.062749-100.325898 26.211182-148.397898-33.841658-48.08191-68.327446-14.180794-116.518363 19.571676-48.210736 33.74256-92.041381 54.384485-58.189814 102.62495zM325.623141 226.29193l209.342611 295.9832 14.478085-10.018716-209.01559-295.527354-19.294205-11.990748 4.489099 21.553618z m499.221429 60.69697v-0.059458l-0.019819-0.01982-59.547444-34.158768V362.907184h0.069368l168.861448 96.877319-63.986993 36.675834a18.323053 18.323053 0 0 1-17.292443 0.257652l-151.331172-86.818964-0.099097-0.049548a18.08522 18.08522 0 0 1-9.087204-14.933932V220.653305c0.247743-6.054832 3.468398-11.336708 8.264698-14.438446l64.611305-37.052404 132.413537 75.888555V328.758325l0.029729 0.019819 59.507805 34.168678v-110.156329h-0.049549l-168.851538-96.8575 63.977084-36.705563a18.332962 18.332962 0 0 1 17.302352-0.257653l151.331173 86.828874 0.089187 0.049549c5.232327 3.022461 8.839461 8.53226 9.097113 14.943841V395.044371a18.134768 18.134768 0 0 1-8.274607 14.438447l-64.621215 37.042493-132.383808-75.888554v-83.647857z"  horiz-adv-x="1192" />

    
    <glyph glyph-name="mima1" unicode="&#58973;" d="M175.436621 13.852134c32.755471 0 62.840783 29.31419 62.840783 61.068351 0 31.788689-26.563467 57.569523-59.318937 57.569523-21.188623 0-40.765944-10.945345-51.342992-28.750233a56.14237 56.14237 0 0 1 0-57.604052c10.577048-17.804889 26.632522-32.283589 47.821146-32.283589z m3.521846 85.767311c9.092348 0 17.482628-4.718813 22.005783-12.372499a23.916327 23.916327 0 0 0 0-24.641413c-4.523155-7.653685-16.446791-17.298479-25.527629-17.252442-14.041347 0-21.867672 15.97491-21.867672 29.555885 0 13.66154 11.35968 24.710469 25.389518 24.710469zM334.921004 801.479636c18.702614 0 48.339064 8.436318 47.844164 47.257189C382.431399 875.369348 368.182884 896.40835 334.921004 895.994015c-25.700269-0.32226-48.108878-17.263951-47.844164-47.25719 0.299242-33.91791 29.130041-47.25719 47.844164-47.257189z m0 63.001913c9.345552 0 15.951891-6.663885 15.951891-15.756233s-6.606339-15.756233-15.951891-15.756233c-9.357062 0-15.951891 6.663885-15.951891 15.756233s6.594829 15.756233 15.951891 15.756233z m1021.646118-115.265649c0 40.858018-34.102059 74.004805-76.249119 74.004805-27.219497 0-52.424866-14.087384-66.040369-36.990893a72.140298 72.140298 0 0 1 0-74.027824c13.627012-22.903509 38.820872-36.990893 66.040369-36.990893 42.14706 0 76.249119 33.146787 76.249119 74.004805z m-118.591837 0c0 22.707851 18.967328 41.111223 42.354227 41.111223 15.14624 0 29.153059-7.837834 36.691652-20.555611a39.937274 39.937274 0 0 0 0-41.111223c-7.527083-12.729287-21.533902-20.567121-36.691652-20.567121-23.3869 0-42.354228 18.414882-42.354227 41.122732z m245.240185-609.34843h15.9634c4.995037 0 15.940382 1.542246 15.940382 15.744724 0 4.868434-2.4745 16.251133-15.940382 15.756233h-15.9634v15.767742c0 4.856925-3.9592 15.261333-15.940382 15.744724-12.499101 0.517919-15.9634-10.887799-15.963401-15.744724v-15.756233h-15.940381c-5.041074 0-16.159059-3.993727-15.963401-15.756233 0.207167-12.234387 10.922327-15.744724 15.963401-15.744723h15.940381v-15.744724c0-4.914472 4.454099-15.97491 15.963401-15.756233 11.486282 0.218677 15.940382 10.841761 15.940382 15.756233v15.733214z m-63.796056-204.773482h-143.532492c-27.564776 0-31.535485-18.77167-31.892273-31.512466 0.241695-19.439209 23.444446-31.489447 31.892273-31.489448h143.532492c27.921564 0 32.640378 18.944309 31.892273 31.489448 0.16113 9.771397-3.096002 31.512466-31.892273 31.512466zM159.48473 439.166842h31.892273v-31.500957c0-4.396553 3.556374-15.537556 15.951891-15.744724 13.281733-0.299242 15.940382 8.424808 15.940382 15.744724v31.500957h31.892273c4.534665 0 16.170568 0.9898 15.951891 15.756233-0.115093 12.18835-6.226532 15.744724-15.951891 15.744723H223.280785v31.500957c0 9.506683-6.192004 15.882835-15.940382 15.756233-12.890417-0.241695-15.951891-11.348171-15.951891-15.756233v-31.500957h-31.892273c-4.546174 0-16.676977-5.547483-15.951891-15.744723 0.713577-9.518192 6.111439-15.756233 15.940382-15.756233z m1148.328993-0.276224c-0.264714-18.817707 15.422463-13.868708 15.917363 0.276224v15.756233h15.963401c3.015437 0 16.055475-2.900344 15.940382 0-0.4949 14.720396-12.924945 15.744724-15.940382 15.744723h-15.963401v15.744724c0 2.934872 3.015437 16.066984 0 15.756233-13.960782-1.4847-15.940382-12.821361-15.940381-15.756233v-15.744724h-15.963401c-3.015437 0-15.848307 2.911853-15.940382 0-0.4949-18.161677 12.924945-15.744724 15.940382-15.744723h15.963401v-15.756233c0-1.231495 0-0.863198 0.023018-0.276224z m271.101584-503.79663h-63.796055c-18.207714 0-32.191515-8.22915-31.892273-31.512466 0.241695-25.470083 23.444446-31.489447 31.892273-31.489448h63.796055c8.470846 0 31.892273 4.856925 31.892273 31.489448 0.379807 21.062021-12.453064 31.512466-31.892273 31.512466z m-398.716713 0h-15.019638c19.462228 26.18366 30.913982 58.720453 30.948511 94.50287V328.907739c-0.092074 88.24181-52.597505 173.180451-143.532493 173.272525H558.201443v78.758147c0 114.770749 79.437195 188.326692 207.340056 189.028759 124.991008-0.702067 207.340057-72.347466 207.340057-189.028759v-31.500957c0.33377-12.372499 6.157476-31.972838 31.892273-31.500957 26.67856 0.483391 31.558503 19.139967 31.892273 31.500957v31.500957c0 142.220432-120.042009 250.649556-271.136112 252.042181-153.660677-1.392625-271.136112-96.355868-271.136112-236.285948v-95.285503c-82.866967-7.642176-143.440418-73.751601-143.532492-156.745169v-330.800328c0.034528-30.78738 10.496482-57.224244 27.748925-78.758147H31.892619S-0.114747-70.418967 0.000346-96.406969c0.149621-27.967601 16.308679-30.937001 24.768016-30.937001l493.139018-0.241695c2.808269-0.092074 5.582011-0.310751 8.40179-0.310751h510.356932c0.471881 0 0.920744 0.069056 1.392625 0.069056l142.139867-0.069056c18.299789 0 32.030385 13.707577 31.892273 31.489447-0.264714 24.848581-23.421427 31.500957-31.892273 31.500957z m-47.832655 110.259103c0-62.967386-30.867945-110.270612-95.688328-110.270612H526.30917c-64.912457 0-111.640219 47.291718-111.640219 110.270612V328.907739c0.046037 63.05946 46.681725 110.236085 111.640219 110.259103h510.356932c64.923967-0.046037 95.630782-47.234171 95.688328-110.259103v-283.554648zM774.725922 360.178509c-77.929477-0.092074-141.069502-61.436648-141.184595-137.052756 0.115093-66.84602 48.131897-119.36296 116.048281-130.515472-8.033492 3.280151 0 0.667539 0 0v-78.758147c0-12.625703 12.142313-19.036384 25.136314-19.082421 13.028529 0.046037 22.707851 6.456718 22.70785 19.082421v78.758147c0 0.32226 0.011509 0.17264 0.01151 0 67.881857 11.210059 118.327123 63.726999 118.419197 130.515472-0.092074 75.616107-63.232099 136.960681-141.138557 137.052756z m6.755959-220.311039c-51.976003 0.080565-95.642291 28.347408-95.688328 78.758147 0.069056 50.433757 27.783453 78.723619 79.747946 78.769656 51.803364 0 95.676819-28.393445 95.676819-78.769656-0.046037-50.410738-27.783453-78.677581-79.736437-78.758147z m15.963401-47.257189h-0.01151c0.023019-0.345279 0.023019-0.17264 0.01151 0z"  horiz-adv-x="1616" />

    


  </font>
</defs>
</svg>
